<?xml version="1.0" encoding="UTF-8"?>
<svg xmlns="http://www.w3.org/2000/svg" xmlns:xlink="http://www.w3.org/1999/xlink" width="200px" height="200px" viewBox="0 0 200 200" version="1.1">
<g id="surface1">
<path style=" stroke:none;fill-rule:nonzero;fill:rgb(0%,46.666667%,71.764708%);fill-opacity:1;" d="M 181.910156 0 L 18.089844 0 C 8.101562 0 0 8.101562 0 18.089844 L 0 181.90625 C 0 191.898438 8.101562 200 18.089844 200 L 181.90625 200 C 191.898438 200 200 191.898438 200 181.90625 L 200 18.089844 C 200 8.101562 191.898438 0 181.910156 0 Z M 61.886719 172.691406 C 61.886719 175.601562 59.53125 177.957031 56.625 177.957031 L 34.210938 177.957031 C 31.304688 177.957031 28.945312 175.601562 28.945312 172.691406 L 28.945312 78.746094 C 28.945312 75.835938 31.304688 73.480469 34.210938 73.480469 L 56.625 73.480469 C 59.53125 73.480469 61.886719 75.835938 61.886719 78.746094 Z M 45.417969 64.625 C 33.660156 64.625 24.125 55.089844 24.125 43.332031 C 24.125 31.574219 33.660156 22.042969 45.417969 22.042969 C 57.175781 22.042969 66.707031 31.574219 66.707031 43.332031 C 66.707031 55.089844 57.175781 64.625 45.417969 64.625 Z M 179.011719 173.117188 C 179.011719 175.789062 176.84375 177.957031 174.167969 177.957031 L 150.121094 177.957031 C 147.445312 177.957031 145.28125 175.789062 145.28125 173.117188 L 145.28125 129.050781 C 145.28125 122.476562 147.207031 100.242188 128.101562 100.242188 C 113.277344 100.242188 110.273438 115.460938 109.667969 122.289062 L 109.667969 173.117188 C 109.667969 175.789062 107.5 177.957031 104.828125 177.957031 L 81.566406 177.957031 C 78.894531 177.957031 76.726562 175.789062 76.726562 173.117188 L 76.726562 78.320312 C 76.726562 75.648438 78.894531 73.480469 81.566406 73.480469 L 104.828125 73.480469 C 107.5 73.480469 109.667969 75.648438 109.667969 78.320312 L 109.667969 86.515625 C 115.164062 78.269531 123.332031 71.902344 140.722656 71.902344 C 179.230469 71.902344 179.011719 107.878906 179.011719 127.648438 Z M 179.011719 173.117188 "/>
</g>
</svg>
